<svg viewBox="0 0 359 93" xmlns="http://www.w3.org/2000/svg" xmlns:xlink="http://www.w3.org/1999/xlink" width="359.000000" height="93.000000" fill="none" clip-path="url(#clipPath_7)" customFrame="url(#clipPath_7)">
	<defs>
		<linearGradient id="paint_linear_7" x1="0" x2="45.1536522" y1="0" y2="174.302811" gradientUnits="userSpaceOnUse">
			<stop stop-color="rgb(230,206,170)" offset="0" stop-opacity="1" />
			<stop stop-color="rgb(200,162,123)" offset="1" stop-opacity="1" />
		</linearGradient>
		<clipPath id="clipPath_7">
			<rect width="359.000000" height="93.000000" x="0.000000" y="0.000000" rx="46.500000" fill="rgb(255,255,255)" />
		</clipPath>
	</defs>
	<rect id="Frame 817" width="359.000000" height="93.000000" x="0.000000" y="0.000000" rx="46.500000" fill="url(#paint_linear_7)" />
	<path id="Рассчитать стоимость" d="M60.872 36.896C62.456 36.896 63.776 37.424 64.832 38.48C65.904 39.536 66.44 40.848 66.44 42.416C66.44 43.968 65.904 45.28 64.832 46.352C63.776 47.408 62.456 47.936 60.872 47.936L57.44 47.936L57.44 53.696L54.68 53.696L54.68 36.896L60.872 36.896ZM60.872 45.344C61.688 45.344 62.36 45.072 62.888 44.528C63.416 43.968 63.68 43.264 63.68 42.416C63.68 41.568 63.416 40.872 62.888 40.328C62.36 39.768 61.688 39.488 60.872 39.488L57.44 39.488L57.44 45.344L60.872 45.344ZM77.3285 41.696L79.9205 41.696L79.9205 53.696L77.3285 53.696L77.3285 51.968C76.3525 53.328 74.9525 54.008 73.1285 54.008C71.4805 54.008 70.0725 53.4 68.9045 52.184C67.7365 50.952 67.1525 49.456 67.1525 47.696C67.1525 45.92 67.7365 44.424 68.9045 43.208C70.0725 41.992 71.4805 41.384 73.1285 41.384C74.9525 41.384 76.3525 42.056 77.3285 43.4L77.3285 41.696ZM70.8245 50.456C71.5445 51.176 72.4485 51.536 73.5365 51.536C74.6245 51.536 75.5285 51.176 76.2485 50.456C76.9685 49.72 77.3285 48.8 77.3285 47.696C77.3285 46.592 76.9685 45.68 76.2485 44.96C75.5285 44.224 74.6245 43.856 73.5365 43.856C72.4485 43.856 71.5445 44.224 70.8245 44.96C70.1045 45.68 69.7445 46.592 69.7445 47.696C69.7445 48.8 70.1045 49.72 70.8245 50.456ZM88.6057 54.008C86.7977 54.008 85.2857 53.4 84.0697 52.184C82.8697 50.968 82.2697 49.472 82.2697 47.696C82.2697 45.904 82.8697 44.408 84.0697 43.208C85.2857 41.992 86.7977 41.384 88.6057 41.384C89.7737 41.384 90.8377 41.664 91.7977 42.224C92.7577 42.784 93.4777 43.536 93.9577 44.48L91.7257 45.776C91.4537 45.2 91.0377 44.752 90.4777 44.432C89.9337 44.096 89.3017 43.928 88.5817 43.928C87.5257 43.928 86.6377 44.288 85.9177 45.008C85.2137 45.728 84.8617 46.624 84.8617 47.696C84.8617 48.768 85.2137 49.664 85.9177 50.384C86.6377 51.104 87.5257 51.464 88.5817 51.464C89.2857 51.464 89.9177 51.296 90.4777 50.96C91.0537 50.624 91.4857 50.176 91.7737 49.616L94.0057 50.888C93.4937 51.848 92.7577 52.608 91.7977 53.168C90.8377 53.728 89.7737 54.008 88.6057 54.008ZM101.356 54.008C99.5477 54.008 98.0357 53.4 96.8197 52.184C95.6197 50.968 95.0197 49.472 95.0197 47.696C95.0197 45.904 95.6197 44.408 96.8197 43.208C98.0357 41.992 99.5477 41.384 101.356 41.384C102.524 41.384 103.588 41.664 104.548 42.224C105.508 42.784 106.228 43.536 106.708 44.48L104.476 45.776C104.204 45.2 103.788 44.752 103.228 44.432C102.684 44.096 102.052 43.928 101.332 43.928C100.276 43.928 99.3877 44.288 98.6677 45.008C97.9637 45.728 97.6117 46.624 97.6117 47.696C97.6117 48.768 97.9637 49.664 98.6677 50.384C99.3877 51.104 100.276 51.464 101.332 51.464C102.036 51.464 102.668 51.296 103.228 50.96C103.804 50.624 104.236 50.176 104.524 49.616L106.756 50.888C106.244 51.848 105.508 52.608 104.548 53.168C103.588 53.728 102.524 54.008 101.356 54.008ZM115.761 41.696L118.353 41.696L118.353 53.696L115.761 53.696L115.761 49.64C114.801 49.992 113.793 50.168 112.737 50.168C111.249 50.168 110.073 49.8 109.209 49.064C108.345 48.328 107.913 47.248 107.913 45.824L107.913 41.696L110.505 41.696L110.505 45.584C110.505 47.024 111.361 47.744 113.073 47.744C114.081 47.744 114.977 47.56 115.761 47.192L115.761 41.696ZM130.067 41.696L132.059 41.696L132.059 53.696L129.515 53.696L129.515 46.064L123.371 53.696L121.379 53.696L121.379 41.696L123.923 41.696L123.923 49.304L130.067 41.696ZM144.235 41.696L144.235 44.192L140.323 44.192L140.323 53.696L137.731 53.696L137.731 44.192L133.795 44.192L133.795 41.696L144.235 41.696ZM155.024 41.696L157.616 41.696L157.616 53.696L155.024 53.696L155.024 51.968C154.048 53.328 152.648 54.008 150.824 54.008C149.176 54.008 147.768 53.4 146.6 52.184C145.432 50.952 144.848 49.456 144.848 47.696C144.848 45.92 145.432 44.424 146.6 43.208C147.768 41.992 149.176 41.384 150.824 41.384C152.648 41.384 154.048 42.056 155.024 43.4L155.024 41.696ZM148.52 50.456C149.24 51.176 150.144 51.536 151.232 51.536C152.32 51.536 153.224 51.176 153.944 50.456C154.664 49.72 155.024 48.8 155.024 47.696C155.024 46.592 154.664 45.68 153.944 44.96C153.224 44.224 152.32 43.856 151.232 43.856C150.144 43.856 149.24 44.224 148.52 44.96C147.8 45.68 147.44 46.592 147.44 47.696C147.44 48.8 147.8 49.72 148.52 50.456ZM169.805 41.696L169.805 44.192L165.893 44.192L165.893 53.696L163.301 53.696L163.301 44.192L159.365 44.192L159.365 41.696L169.805 41.696ZM176.791 45.776C178.071 45.776 179.119 46.144 179.935 46.88C180.751 47.6 181.159 48.552 181.159 49.736C181.159 50.904 180.751 51.856 179.935 52.592C179.119 53.328 178.071 53.696 176.791 53.696L171.559 53.696L171.559 41.696L174.151 41.696L174.151 45.776L176.791 45.776ZM176.815 51.368C177.327 51.368 177.751 51.216 178.087 50.912C178.439 50.608 178.615 50.216 178.615 49.736C178.615 49.24 178.439 48.848 178.087 48.56C177.751 48.256 177.327 48.104 176.815 48.104L174.151 48.104L174.151 51.368L176.815 51.368ZM194.942 54.008C193.134 54.008 191.622 53.4 190.406 52.184C189.206 50.968 188.606 49.472 188.606 47.696C188.606 45.904 189.206 44.408 190.406 43.208C191.622 41.992 193.134 41.384 194.942 41.384C196.11 41.384 197.174 41.664 198.134 42.224C199.094 42.784 199.814 43.536 200.294 44.48L198.062 45.776C197.79 45.2 197.374 44.752 196.814 44.432C196.27 44.096 195.638 43.928 194.918 43.928C193.862 43.928 192.974 44.288 192.254 45.008C191.55 45.728 191.198 46.624 191.198 47.696C191.198 48.768 191.55 49.664 192.254 50.384C192.974 51.104 193.862 51.464 194.918 51.464C195.622 51.464 196.254 51.296 196.814 50.96C197.39 50.624 197.822 50.176 198.11 49.616L200.342 50.888C199.83 51.848 199.094 52.608 198.134 53.168C197.174 53.728 196.11 54.008 194.942 54.008ZM211.266 41.696L211.266 44.192L207.354 44.192L207.354 53.696L204.762 53.696L204.762 44.192L200.826 44.192L200.826 41.696L211.266 41.696ZM218.215 54.008C216.455 54.008 214.959 53.4 213.727 52.184C212.495 50.968 211.879 49.472 211.879 47.696C211.879 45.92 212.495 44.424 213.727 43.208C214.959 41.992 216.455 41.384 218.215 41.384C219.991 41.384 221.487 41.992 222.703 43.208C223.935 44.424 224.551 45.92 224.551 47.696C224.551 49.472 223.935 50.968 222.703 52.184C221.487 53.4 219.991 54.008 218.215 54.008ZM215.551 50.408C216.271 51.128 217.159 51.488 218.215 51.488C219.271 51.488 220.159 51.128 220.879 50.408C221.599 49.688 221.959 48.784 221.959 47.696C221.959 46.608 221.599 45.704 220.879 44.984C220.159 44.264 219.271 43.904 218.215 43.904C217.159 43.904 216.271 44.264 215.551 44.984C214.831 45.704 214.471 46.608 214.471 47.696C214.471 48.784 214.831 49.688 215.551 50.408ZM235.583 41.696L237.575 41.696L237.575 53.696L235.031 53.696L235.031 46.064L228.887 53.696L226.895 53.696L226.895 41.696L229.439 41.696L229.439 49.304L235.583 41.696ZM252.822 41.696L252.822 53.696L250.302 53.696L250.302 45.8L246.846 51.296L246.534 51.296L243.102 45.824L243.102 53.696L240.582 53.696L240.582 41.696L243.222 41.696L246.702 47.24L250.182 41.696L252.822 41.696ZM261.481 54.008C259.721 54.008 258.225 53.4 256.993 52.184C255.761 50.968 255.145 49.472 255.145 47.696C255.145 45.92 255.761 44.424 256.993 43.208C258.225 41.992 259.721 41.384 261.481 41.384C263.257 41.384 264.753 41.992 265.969 43.208C267.201 44.424 267.817 45.92 267.817 47.696C267.817 49.472 267.201 50.968 265.969 52.184C264.753 53.4 263.257 54.008 261.481 54.008ZM258.817 50.408C259.537 51.128 260.425 51.488 261.481 51.488C262.537 51.488 263.425 51.128 264.145 50.408C264.865 49.688 265.225 48.784 265.225 47.696C265.225 46.608 264.865 45.704 264.145 44.984C263.425 44.264 262.537 43.904 261.481 43.904C260.425 43.904 259.537 44.264 258.817 44.984C258.097 45.704 257.737 46.608 257.737 47.696C257.737 48.784 258.097 49.688 258.817 50.408ZM275.824 54.008C274.016 54.008 272.504 53.4 271.288 52.184C270.088 50.968 269.488 49.472 269.488 47.696C269.488 45.904 270.088 44.408 271.288 43.208C272.504 41.992 274.016 41.384 275.824 41.384C276.992 41.384 278.056 41.664 279.016 42.224C279.976 42.784 280.696 43.536 281.176 44.48L278.944 45.776C278.672 45.2 278.256 44.752 277.696 44.432C277.152 44.096 276.52 43.928 275.8 43.928C274.744 43.928 273.856 44.288 273.136 45.008C272.432 45.728 272.08 46.624 272.08 47.696C272.08 48.768 272.432 49.664 273.136 50.384C273.856 51.104 274.744 51.464 275.8 51.464C276.504 51.464 277.136 51.296 277.696 50.96C278.272 50.624 278.704 50.176 278.992 49.616L281.224 50.888C280.712 51.848 279.976 52.608 279.016 53.168C278.056 53.728 276.992 54.008 275.824 54.008ZM292.149 41.696L292.149 44.192L288.237 44.192L288.237 53.696L285.645 53.696L285.645 44.192L281.709 44.192L281.709 41.696L292.149 41.696ZM299.135 45.776C300.415 45.776 301.463 46.144 302.279 46.88C303.095 47.6 303.503 48.552 303.503 49.736C303.503 50.904 303.095 51.856 302.279 52.592C301.463 53.328 300.415 53.696 299.135 53.696L293.903 53.696L293.903 41.696L296.495 41.696L296.495 45.776L299.135 45.776ZM299.159 51.368C299.671 51.368 300.095 51.216 300.431 50.912C300.783 50.608 300.959 50.216 300.959 49.736C300.959 49.24 300.783 48.848 300.431 48.56C300.095 48.256 299.671 48.104 299.159 48.104L296.495 48.104L296.495 51.368L299.159 51.368Z" fill="rgb(34,34,34)" fill-rule="nonzero" />
</svg>
